<?xml version="1.0" encoding="utf-8"?>
<!-- Generator: Adobe Illustrator 25.0.0, SVG Export Plug-In . SVG Version: 6.00 Build 0)  -->
<svg version="1.1" xmlns="http://www.w3.org/2000/svg" xmlns:xlink="http://www.w3.org/1999/xlink" x="0px" y="0px"
	 viewBox="0 0 618.7 395.16" style="enable-background:new 0 0 618.7 395.16;" xml:space="preserve">
<style type="text/css">
	.st0{fill:#F7BC87;}
	.st1{fill:#232320;}
</style>
<g id="Layer_2">
</g>
<g id="Layer_1">
	<g id="light">
		<polygon class="st0" points="618.18,385.2 616.88,384.68 615.39,384.27 613.99,383.65 612.72,382.78 611.21,382.41 609.95,381.49 
			608.68,380.59 607.19,380.19 605.75,379.67 604.26,379.25 602.85,378.65 601.75,377.4 600.27,376.96 598.95,376.19 597.33,376.05 
			596.09,375.1 594.82,374.21 593.49,373.44 592.08,372.85 590.73,372.14 589.16,371.88 587.8,371.19 586.32,370.74 584.91,370.15 
			583.87,368.76 582.19,368.74 580.89,367.92 579.61,367.04 577.95,367 576.89,365.65 575.26,365.53 573.78,365.1 572.59,364.04 
			571.11,363.6 569.95,362.48 568.5,361.98 566.89,361.82 565.63,360.9 564.14,360.47 563.03,359.26 561.34,359.26 560.01,358.49 
			558.56,357.99 557.38,356.91 555.82,356.62 554.55,355.73 553.25,354.93 551.64,354.77 550.66,353.28 549.16,352.89 
			547.82,352.16 546.27,351.89 545.03,350.94 543.53,350.55 542.3,349.59 540.59,349.64 539.4,348.59 537.86,348.28 536.84,346.85 
			535.26,346.63 534,345.72 532.39,345.55 531,344.9 529.76,343.95 528.25,343.57 527.02,342.6 525.35,342.56 524.09,341.65 
			522.63,341.18 521.21,340.61 519.9,339.82 518.81,338.56 517.12,338.56 516.08,337.19 514.62,336.72 513.13,336.3 511.76,335.63 
			510.55,334.61 509.13,334.05 507.77,333.38 506.31,332.89 504.9,332.3 503.41,331.89 502.16,330.95 500.61,330.67 499.23,330.01 
			497.72,329.63 496.33,328.98 494.94,328.34 493.89,326.98 492.19,327.01 490.88,326.2 489.4,325.76 488.39,324.31 486.63,324.48 
			485.45,323.38 483.99,322.9 482.64,322.19 481.32,321.42 479.92,320.8 478.57,320.08 477.22,319.36 475.84,318.72 474.33,318.34 
			473.18,317.17 471.49,317.17 470.27,316.18 468.88,315.53 467.25,315.41 466.24,313.95 464.63,313.8 463.45,312.71 461.73,312.77 
			460.44,311.92 459.13,311.12 457.72,310.52 456.24,310.09 455.13,308.83 453.72,308.24 452.07,308.16 450.79,307.28 
			449.45,306.53 447.83,306.39 446.46,305.7 445.17,304.85 443.86,304.05 442.5,303.34 441.12,302.68 439.78,301.93 438.46,301.13 
			437,300.64 435.55,300.13 434.07,299.68 432.82,298.74 431.4,298.17 430.06,297.41 428.69,296.73 427.17,296.36 425.88,295.51 
			424.22,295.44 422.97,294.51 421.86,293.26 420.37,292.86 418.95,292.29 417.37,292.07 416.23,290.89 414.78,290.37 
			413.28,289.96 412.06,288.97 410.69,288.28 408.99,288.32 407.64,287.57 406.33,286.77 405.17,285.64 403.63,285.31 
			402.06,285.04 400.77,284.19 399.41,283.48 398.19,282.46 396.51,282.44 395.15,281.74 393.96,280.66 392.31,280.57 
			391.15,279.43 389.54,279.24 388.5,277.84 386.97,277.48 385.59,276.82 384.06,276.47 382.57,276.03 381.24,275.26 380.09,274.08 
			378.42,274.03 377.16,273.1 375.67,272.66 374.29,271.95 373.02,271.05 373.02,272.61 372.16,273.93 371.75,275.45 370.79,276.66 
			369.71,277.76 368.7,278.91 367.21,279.52 366.19,280.64 365.21,281.85 363.83,282.53 362.63,283.46 361.1,283.83 359.77,284.55 
			358.56,285.49 357.03,285.8 355.95,287.1 354.37,287.25 352.98,287.86 351.46,288.13 350.06,288.69 348.8,289.73 347.3,290.02 
			345.83,290.42 344.48,291.25 343.03,291.73 341.55,292.12 340.06,292.42 338.52,292.53 337.02,292.84 335.58,293.38 
			334.04,293.45 332.54,293.66 331.06,294.07 329.52,294.05 327.99,294.14 326.53,294.63 325.09,295.29 323.51,295.02 
			322.04,295.49 320.49,295.39 319.03,295.99 317.44,295.56 315.98,296.17 314.49,296.58 312.97,296.75 311.41,296.18 
			309.93,296.42 308.5,297.16 306.99,297.02 305.51,297.38 304.03,297.58 302.53,297.69 301,297.31 299.54,297.96 298.02,297.52 
			296.52,297.59 295.02,297.52 293.52,297.74 292.03,297.98 290.53,298.13 289.08,298.5 287.58,298.78 285.97,298.66 284.49,299.18 
			282.96,299.49 281.33,299.23 279.88,299.98 278.31,300.04 276.86,300.75 275.24,300.53 273.66,300.52 272.12,300.76 270.7,301.77 
			269.09,301.55 267.55,301.76 266,301.94 264.52,302.5 262.93,302.42 261.37,302.5 259.92,303.38 258.3,303.01 256.73,303.01 
			255.2,303.27 253.69,303.83 252.13,303.91 250.62,304.48 249.02,304.24 247.43,304.05 245.88,304.13 244.36,304.46 242.92,305.19 
			241.35,305.12 239.91,305.73 238.44,306.15 236.9,306.34 235.37,306.55 234.02,307.39 232.54,307.78 230.93,307.78 229.61,308.68 
			228.16,309.18 226.51,309.08 225.25,310.15 223.69,310.32 222.25,310.85 220.98,311.87 219.46,312.19 217.87,312.3 216.31,312.54 
			215.06,313.6 213.6,314.12 212.15,314.64 210.79,315.42 209.08,315.22 207.83,316.3 206.41,316.89 204.98,317.48 203.57,318.09 
			202.04,318.39 200.57,318.84 199.14,319.41 197.59,319.63 196.33,320.73 194.65,320.48 193.13,320.7 191.65,320.97 190.22,321.36 
			188.63,321.17 189.17,319.55 188.87,318.08 188.25,316.59 188.15,315.06 188.56,313.56 188.48,312.01 188.74,310.5 188.98,308.97 
			190.33,307.81 190.34,306.2 190.69,304.67 191.46,303.34 192.92,302.44 193.11,300.76 194.03,299.54 195.38,298.67 196.18,297.37 
			197.28,296.33 198.45,295.36 199.65,294.44 200.34,292.92 201.39,291.79 202.73,291.02 204.42,290.79 205.47,289.65 
			206.53,288.49 207.98,287.97 209.44,287.38 210.71,286.47 212.13,285.82 213.55,285.16 214.77,284.09 216.39,283.91 
			217.89,283.47 219.18,282.46 220.83,282.47 222.21,281.68 223.63,280.97 225.27,281.03 226.82,280.82 228.26,280.19 229.61,279.2 
			231.28,279.45 232.63,278.41 234.31,278.7 235.8,278.25 237.15,277.25 238.69,276.96 240.25,276.73 241.71,276.32 243.28,276.45 
			244.7,275.8 246.21,275.66 247.65,275.13 249.15,274.97 250.69,274.93 252.1,274.31 253.62,274.17 255.02,273.53 256.56,273.41 
			257.99,272.91 259.32,272.17 260.86,271.89 262.13,271.04 263.37,270.17 264.71,269.39 265.3,267.82 266.23,266.67 267.77,265.9 
			268.3,264.43 269.01,263.06 269.66,261.61 269.68,260.04 269.13,258.5 268.97,257.02 269.37,255.44 269.12,253.92 268.59,252.48 
			267.89,251.11 267.38,249.67 267.01,248.17 266.47,246.72 265.12,245.71 264.21,244.49 263.38,243.23 262.89,241.75 
			262.37,240.27 260.97,239.38 260.25,238.04 259.26,236.89 258.29,235.72 257.75,234.23 256.49,233.28 255.65,232.01 
			254.68,230.84 253.6,229.77 252.92,228.36 251.64,227.45 250.74,226.22 250.23,224.66 249.33,223.43 248.32,222.27 247.03,221.37 
			245.95,220.3 244.92,219.18 244.41,217.61 243.37,216.49 241.99,215.69 240.81,214.72 240.2,213.21 238.94,212.3 237.8,211.29 
			236.67,210.28 235.44,209.35 234.59,208.06 233.78,206.73 232.66,205.69 231.23,204.97 230.23,203.82 229.17,202.74 
			228.02,201.74 227.17,200.44 225.78,199.69 224.88,198.43 223.94,197.22 222.89,196.12 221.43,195.48 220.31,194.6 219.01,193.93 
			217.48,193.82 216.19,192.63 214.53,193.07 213.14,192.25 211.6,192.21 210.14,191.68 208.66,191.26 207.13,191.17 205.55,191.37 
			204.02,191.31 202.59,190.4 200.98,191.04 199.53,190.25 198.01,189.99 196.49,189.76 194.92,190.19 193.39,190.22 191.84,190.46 
			190.33,189.46 188.79,189.51 187.25,189.5 185.71,189.54 184.18,190.11 182.64,189.88 181.11,190.36 179.57,190.28 178.02,189.73 
			176.48,189.62 174.94,189.75 173.42,190.52 171.87,189.8 170.33,189.76 168.8,190.38 167.26,190.26 165.72,189.71 164.18,190 
			162.62,190.47 161.08,190.29 159.55,189.93 157.98,190.21 156.48,189.53 154.97,189.12 153.35,189.9 151.84,189.43 150.28,189.45 
			148.86,188.5 147.25,188.73 145.76,188.32 144.19,188.26 142.74,187.61 141.12,187.8 139.67,187.18 138.13,186.97 136.67,186.41 
			135.12,186.24 133.65,185.72 132.25,184.9 130.64,185.03 129.18,184.47 127.7,184.01 126.16,183.79 124.73,183.17 123.01,183.63 
			121.66,182.7 120.25,181.98 118.78,181.53 117.15,181.6 115.62,181.33 114.08,181.07 112.84,179.85 111.23,179.81 109.81,179.19 
			108.43,178.44 106.83,178.33 105.56,177.33 104.03,177 102.55,176.53 101.05,176.12 99.59,175.58 98.45,174.37 96.98,173.87 
			95.5,173.33 94.12,172.61 92.93,171.6 91.87,170.42 90.63,169.52 89.22,168.72 88.51,167.28 87.98,165.81 86.74,164.74 
			86.2,163.29 85.19,162.07 84.86,160.53 84.37,159.07 83.91,157.61 84.04,156.08 83.97,154.49 85.39,153.8 86.82,153.52 
			88.28,153.17 89.81,152.55 91.32,153.16 92.81,153.64 94.34,153.59 95.93,153.11 97.36,153.96 98.87,154.19 100.4,154.23 
			101.93,154.34 103.41,154.72 104.9,155.12 106.52,154.54 107.98,155.15 109.5,155.31 110.97,155.81 112.46,156.16 114.04,155.87 
			115.5,156.51 117.12,155.82 118.63,156.03 120.1,156.59 121.6,156.86 123.16,156.67 124.7,156.59 126.13,157.67 127.66,157.75 
			129.24,157.2 130.71,157.86 132.24,158.02 133.78,157.82 135.34,157.58 136.86,157.81 138.39,158.01 139.91,158.38 141.43,158.82 
			142.99,158.64 144.55,158.46 146.07,158.75 147.61,158.82 149.11,159.38 150.65,159.46 152.23,159.02 153.74,159.66 
			155.28,159.68 156.85,159.06 158.37,159.87 159.92,159.85 161.47,159.45 163.02,159.37 164.56,159.49 166.11,159.59 
			167.65,159.61 169.2,159.56 170.7,158.92 172.31,159.63 173.78,158.72 175.35,158.85 176.84,158.34 178.4,158.38 179.92,158.09 
			181.45,157.87 182.94,157.42 184.5,157.36 185.98,156.91 185.21,156.3 184.02,155.33 182.63,154.71 181.05,154.67 179.7,153.97 
			178.33,153.28 176.74,153.32 175.32,152.79 173.95,152.07 172.44,151.89 171.02,151.35 169.65,150.59 168,150.94 166.64,150.11 
			165.2,149.59 163.58,149.84 162.1,149.47 160.56,149.38 159.15,148.7 157.66,148.36 156.13,148.23 154.64,147.9 153.18,147.42 
			151.78,146.73 150.34,146.17 148.8,146.05 147.33,145.62 145.85,145.27 144.33,145.07 142.75,145.11 141.36,144.33 139.84,144.13 
			138.29,144.08 136.82,143.67 135.45,142.89 133.87,142.94 132.42,142.45 130.89,142.32 129.46,141.75 127.97,141.42 
			126.58,140.72 125.08,140.43 123.69,139.71 122.17,139.5 120.72,139.04 119.27,138.55 117.66,138.69 116.21,138.2 114.86,137.34 
			113.31,137.21 111.74,137.18 110.25,136.83 108.88,136.06 107.36,135.8 105.93,135.27 104.51,134.71 102.95,134.59 101.58,133.85 
			100.19,133.17 98.66,132.95 97.18,132.55 95.81,131.83 94.27,131.62 92.94,130.79 91.47,130.37 90.04,129.81 88.72,128.96 
			87.22,128.62 85.64,128.5 84.25,127.85 82.66,127.7 81.52,126.42 79.9,126.37 78.58,125.54 77,125.35 75.6,124.74 74.5,123.42 
			72.8,123.5 71.55,122.53 70.11,122 68.74,121.33 67.39,120.61 65.98,120.01 64.44,119.68 63.28,118.56 61.8,118.09 60.59,117.1 
			59.29,116.3 57.77,115.88 56.43,115.14 55.21,114.19 53.79,113.59 52.39,112.94 51.48,111.53 50.05,110.91 49.02,109.72 
			47.65,109.03 46.26,108.35 44.95,107.55 43.61,106.78 42.91,105.13 41.34,104.57 40.35,103.31 39.14,102.32 38.19,101.03 
			36.95,100.07 35.43,99.38 34.66,97.92 33.22,97.13 32.24,95.89 30.95,94.94 30.34,93.37 29.01,92.44 28.43,90.89 26.99,90.03 
			26.37,88.53 25.48,87.24 24.69,85.96 23.44,85 22.96,83.49 21.56,82.61 20.87,81.26 20.62,79.65 19.4,78.63 18.84,77.23 
			17.71,75.66 19.67,75.96 21.07,76.78 22.6,76.8 24.09,77.11 25.55,77.49 27.09,77.47 28.67,77.25 30.09,77.9 31.52,78.45 
			33.12,78.25 34.46,79.2 36.09,78.9 37.42,79.87 39.05,79.59 40.39,80.46 41.96,80.48 43.36,81.12 44.93,81.17 46.34,81.77 
			47.67,82.63 49.3,82.43 50.59,83.29 51.96,83.93 53.39,84.39 54.91,84.6 56.29,85.18 57.68,85.72 59.17,86.05 60.45,86.89 
			61.97,87.13 63.41,87.62 64.49,88.94 66.15,88.92 67.48,89.71 68.71,90.73 70.23,91.05 71.83,91.14 73.12,92.06 74.52,92.67 
			75.87,93.45 77.52,93.33 78.96,93.82 80.33,94.56 81.8,94.99 83.27,95.41 84.93,95.07 86.37,95.56 87.81,96.09 89.29,96.43 
			90.77,96.76 92.27,97 93.61,97.97 95.09,98.32 96.76,97.87 98.26,98.17 99.76,98.5 101.01,99.62 102.63,99.47 104.04,100.07 
			105.31,101 106.67,101.65 108.1,102.12 109.55,102.57 111.17,102.59 112.27,103.93 113.98,103.52 115.27,104.47 116.76,104.72 
			118.18,105.37 119.78,104.87 121.23,105.39 122.72,105.66 124.25,105.44 125.76,105.43 127.22,105.79 128.41,106.93 
			128.56,106.82 127.26,105.74 126.16,104.73 124.94,103.86 123.75,102.94 122.73,101.74 120.97,101.7 120.13,100.22 118.87,99.42 
			117.6,98.63 116.16,98.08 115.09,96.98 113.79,96.22 112.29,95.72 111.26,94.59 110.33,93.34 109.25,92.29 107.7,91.78 
			106.65,90.7 105.35,89.88 104.28,88.82 103.64,87.29 102.51,86.3 101.11,85.58 100.29,84.26 98.84,83.57 97.89,82.38 97.19,80.96 
			95.72,80.25 94.65,79.18 94.15,77.58 93.22,76.38 91.68,75.72 90.99,74.3 89.6,73.5 89.07,71.94 87.86,70.98 87.06,69.66 
			86.12,68.46 85.14,67.3 84.04,66.25 82.78,65.31 81.59,64.32 81.31,62.58 79.8,61.86 78.93,60.6 78.01,59.38 77.45,57.9 
			76.09,57.03 75.09,55.88 74.12,54.7 73.94,52.96 72.43,52.15 71.71,50.8 71.26,49.28 70.51,47.97 69.77,46.64 68.62,45.56 
			68.22,44.05 67.05,42.95 66.26,41.64 66.26,39.98 65.5,38.66 65.15,37.11 64.11,35.83 63.75,34.29 62.79,32.98 62.8,31.31 
			61.58,30.08 61.42,28.47 61.4,26.86 61.22,25.33 60.45,23.83 61.31,22.36 61.4,20.83 62.34,19.63 62.79,18.04 64.26,17.3 
			65.08,15.81 66.67,15.41 68.22,15.84 69.74,16.07 70.9,17.17 72.51,17.42 73.95,18.03 75.09,19.08 76.2,20.15 77.66,20.72 
			78.73,21.86 80.01,22.68 81.17,23.7 82.44,24.54 84,24.93 85.17,25.96 86.53,26.67 87.89,27.4 88.9,28.64 90.01,29.73 
			91.21,30.67 92.54,31.43 93.66,32.49 95.33,32.83 96.09,34.34 97.55,34.96 98.52,36.2 100.08,36.71 101.15,37.81 102.6,38.46 
			103.33,39.99 104.67,40.77 105.94,41.64 106.89,42.91 107.92,44.08 109.64,44.39 110.61,45.64 111.99,46.35 113.1,47.43 
			114.16,48.57 115.69,49.08 116.94,49.95 118.15,50.89 119.08,52.22 120.43,52.95 121.95,53.45 123.25,54.25 124.2,55.55 
			125.72,56.05 126.67,57.34 128.1,57.97 129.11,59.18 130.38,60.03 131.68,60.84 132.88,61.78 134.02,62.82 135.4,63.52 
			136.39,64.75 137.71,65.53 139.32,65.92 140.56,66.8 141.47,68.15 142.8,68.93 143.84,70.1 145.14,70.9 146.36,71.83 
			147.78,72.46 149.22,73.08 150.43,74.01 151.3,75.43 152.43,76.48 154.09,76.77 155.01,78.12 156.56,78.58 157.59,79.77 
			158.87,80.61 160.36,81.14 161.57,82.08 162.4,83.57 163.79,84.24 164.9,85.32 166.69,85.43 167.54,86.89 168.76,87.82 
			170.39,88.15 171.6,89.09 172.5,90.48 173.82,91.26 175.39,91.67 176.47,92.8 177.75,93.64 179.01,94.51 180.26,95.39 
			181.75,95.91 182.69,97.26 184.24,97.69 185.23,98.97 186.83,99.33 187.96,100.4 189.49,100.86 190.63,101.9 192.03,102.56 
			193.01,103.87 194.38,104.57 195.73,105.3 196.95,106.23 198.03,107.38 199.68,107.64 201.01,108.4 202.12,109.52 203.49,110.21 
			204.76,111.06 206.15,111.73 207.32,112.76 208.46,113.81 210.08,114.1 211.11,115.35 212.31,116.34 213.73,116.95 215.11,117.63 
			216.53,118.24 218.04,118.7 219.37,119.46 220.51,120.53 221.65,121.62 223.11,122.15 224.52,122.78 225.81,123.61 227.11,124.4 
			228.19,125.6 229.61,126.18 231.06,126.73 232.5,127.28 233.69,128.29 234.91,129.24 236.13,130.18 237.45,130.96 239,131.32 
			240.13,132.44 241.71,132.74 242.8,133.92 244.28,134.41 245.53,135.31 246.87,136.05 248.63,136.02 249.8,137.06 251.04,138 
			252.33,138.82 253.75,139.42 255.2,139.95 256.34,141.08 258.1,141.01 259.03,142.53 260.74,142.56 262.01,143.43 263.39,144.1 
			264.71,144.89 265.82,146.08 267.4,146.36 268.98,146.61 269.96,148.08 271.4,148.63 272.7,149.45 274.16,149.97 275.73,150.23 
			277.13,150.87 278.41,151.73 279.67,152.64 281.18,153.05 282.55,153.73 283.96,154.33 285.38,154.92 286.77,155.57 
			288.12,156.31 289.58,156.8 291,157.39 292.33,158.17 293.61,159.06 295.19,159.28 296.35,160.43 297.81,160.93 299.25,161.48 
			300.73,161.92 301.99,162.86 303.34,163.59 304.84,163.99 306.19,164.72 307.52,165.5 309.1,165.71 310.36,166.66 311.81,167.15 
			313.26,167.67 314.44,168.81 315.97,169.13 317.62,169.17 318.68,170.6 320.23,170.87 321.56,171.65 323.1,171.95 324.33,172.98 
			325.84,173.36 327.5,173.35 328.75,174.36 330.3,174.62 331.63,175.43 333.02,176.07 334.48,176.57 336.01,176.88 337.45,177.42 
			338.69,178.46 340.02,179.26 341.56,179.56 342.94,180.22 344.63,180.12 346.06,180.66 347.2,181.99 348.71,182.32 350.04,183.16 
			351.68,183.15 353.18,183.54 354.57,184.19 356,184.78 357.41,185.4 358.87,185.89 360.37,186.25 361.86,186.66 363.08,187.79 
			364.6,188.1 365.96,188.88 367.38,189.46 368.86,189.92 370.32,190.42 371.72,191.06 373.14,191.67 374.7,191.89 376.03,192.75 
			377.74,192.54 379.25,192.89 380.44,194.19 381.93,194.58 383.44,194.92 384.81,195.64 386.39,195.76 387.78,196.42 389.1,197.31 
			390.77,197.15 392.1,198.02 393.71,198.05 395.04,198.91 396.57,199.17 398.09,199.45 399.4,200.37 400.74,201.17 402.16,201.76 
			403.75,201.84 405.21,202.33 406.53,203.2 408.03,203.54 409.43,204.21 410.93,204.56 412.48,204.78 413.87,205.49 415.53,205.38 
			416.83,206.33 418.32,206.73 419.66,207.55 421.31,207.48 422.64,208.35 424.07,208.91 425.46,209.61 426.92,210.1 428.52,210.15 
			429.95,210.73 431.33,211.44 432.81,211.85 434.23,212.47 435.8,212.6 437.29,213.01 438.59,213.96 440.07,214.38 441.65,214.49 
			442.95,215.45 444.39,216 446.11,215.68 447.31,216.94 448.87,217.12 450.39,217.41 451.86,217.87 453.24,218.57 454.79,218.77 
			456.13,219.63 457.53,220.28 459.17,220.21 460.64,220.65 461.94,221.63 463.59,221.5 464.96,222.24 466.47,222.58 467.76,223.58 
			469.31,223.77 470.79,224.19 472.35,224.34 473.81,224.8 475.12,225.74 476.5,226.46 478,226.83 479.55,226.99 481.17,226.96 
			482.41,228.12 483.94,228.37 485.44,228.72 486.81,229.45 488.22,230.11 489.79,230.2 491.16,230.98 492.71,231.14 494.05,231.99 
			495.65,232 496.98,232.89 498.59,232.87 499.95,233.68 501.65,233.35 502.87,234.6 504.5,234.5 505.98,234.91 507.38,235.56 
			508.82,236.1 510.39,236.19 511.68,237.19 513.15,237.64 514.56,238.27 516.07,238.54 517.76,238.24 519.15,238.94 520.47,239.85 
			521.9,240.42 523.39,240.79 525.07,240.51 526.4,241.38 527.96,241.51 529.46,241.82 530.91,242.31 532.29,243.03 533.66,243.8 
			535.11,244.3 536.64,244.51 538.2,244.61 539.55,245.46 541.02,245.86 542.48,246.33 544.14,246.04 545.4,247.2 546.88,247.61 
			548.46,247.63 549.89,248.17 551.4,248.43 552.87,248.86 554.47,248.79 555.72,250 557.23,250.28 558.89,249.97 560.17,251.12 
			561.77,251.03 563.25,251.39 564.64,252.14 566.2,252.24 567.6,252.96 569.21,252.84 570.73,253.06 572.22,253.41 573.47,254.73 
			575,254.93 576.65,254.62 577.98,255.62 579.55,255.61 580.9,256.52 582.56,256.13 583.98,256.79 585.4,257.41 587.01,257.2 
			588.37,258.11 590.02,257.71 591.48,258.17 592.85,259.09 594.46,258.82 595.97,259.06 597.45,259.44 598.87,260.12 
			600.48,259.84 601.97,260.15 603.34,261.11 604.96,260.73 606.47,260.93 607.84,261.97 609.39,262 610.9,262.19 612.42,262.37 
			613.89,262.89 615.46,262.55 616.95,262.89 618.48,262.86 619.99,263.26 621.51,263.35 623.14,263.01 622.69,264.55 
			622.59,266.08 622.75,267.61 622.69,269.13 622.81,270.66 622.61,272.18 622.96,273.73 622.63,275.24 622.2,276.76 622.38,278.29 
			622.25,279.82 622.71,281.37 622.65,282.89 621.84,284.39 622.23,285.93 621.61,287.44 622.46,289 621.86,290.5 622.11,292.04 
			622.15,293.57 621.83,295.09 621.45,296.6 621.91,298.15 621.64,299.67 621.83,301.21 621.71,302.74 621.67,304.26 621.12,305.77 
			621.13,307.3 620.88,308.82 621.14,310.36 621.61,311.91 620.91,313.41 620.54,314.93 620.58,316.46 621.21,318.02 621.06,319.54 
			621.17,321.08 621.05,322.6 620.78,324.12 620.1,325.63 620.18,327.16 620.94,328.72 620.42,330.23 620,331.75 620.64,333.31 
			619.99,334.81 620.4,336.35 620.26,337.88 619.7,339.39 619.65,340.92 619.56,342.44 619.41,343.97 620.14,345.52 619.94,347.04 
			620.07,348.58 619.45,350.09 619.9,351.64 619.82,353.17 619.43,354.68 619.15,356.2 618.98,357.73 619,359.26 619.65,360.82 
			618.9,362.32 618.63,363.85 619.37,365.41 618.52,366.91 619,368.46 618.39,369.97 619.01,371.53 618.8,373.05 619.01,374.6 
			618.53,376.11 618.73,377.65 618.4,379.18 618.2,380.71 618.73,382.27 618.34,383.79 		"/>
	</g>
	<g id="dark">
		<polygon class="st1" points="619.63,366.78 618.38,366.24 617.4,365.53 616.39,364.88 615.3,364.37 614.27,363.77 613.16,363.31 
			612.16,362.64 611.02,362.24 610.06,361.48 608.84,361.23 607.77,360.69 606.7,360.16 605.73,359.41 604.52,359.15 603.55,358.41 
			602.48,357.88 601.47,357.22 600.34,356.81 599.19,356.42 598.12,355.89 597.09,355.28 596.08,354.62 595.02,354.06 
			593.88,353.67 592.94,352.87 591.83,352.42 590.74,351.92 589.77,351.18 588.55,350.96 587.52,350.33 586.62,349.48 
			585.44,349.15 584.36,348.66 583.34,348.02 582.34,347.35 581.13,347.1 580.16,346.36 579.09,345.82 577.9,345.52 577.04,344.58 
			575.89,344.18 574.88,343.53 573.71,343.19 572.59,342.75 571.69,341.89 570.48,341.61 569.53,340.85 568.31,340.6 567.38,339.79 
			566.27,339.35 565.11,338.99 564.24,338.07 563.03,337.81 561.98,337.23 561,336.54 559.94,335.99 558.74,335.72 557.85,334.82 
			556.76,334.35 555.59,334.01 554.67,333.19 553.5,332.86 552.51,332.17 551.35,331.82 550.29,331.27 549.3,330.59 548.29,329.94 
			547.1,329.65 546.13,328.93 545.1,328.32 544.02,327.8 542.81,327.54 541.87,326.76 540.77,326.29 539.79,325.57 538.64,325.19 
			537.61,324.58 536.56,324.01 535.56,323.33 534.34,323.08 533.33,322.42 532.33,321.74 531.2,321.32 530.04,320.96 529.09,320.17 
			528.05,319.57 526.85,319.3 525.88,318.56 524.73,318.19 523.78,317.42 522.64,317.01 521.53,316.55 520.54,315.86 519.44,315.38 
			518.3,315 517.29,314.34 516.31,313.63 515.29,313.01 514.16,312.57 513.08,312.07 512,311.54 511.05,310.79 509.78,310.62 
			508.84,309.83 507.85,309.14 506.62,308.91 505.5,308.48 504.47,307.85 503.51,307.08 502.38,306.67 501.36,306.03 500.27,305.52 
			499.15,305.07 498.1,304.5 496.99,304.04 496.07,303.21 494.83,303 493.97,302.04 492.81,301.68 491.79,301.05 490.74,300.47 
			489.54,300.19 488.62,299.35 487.48,298.95 486.36,298.51 485.25,298.03 484.19,297.48 483.2,296.77 482.12,296.24 481.04,295.72 
			479.89,295.34 478.84,294.75 477.82,294.11 476.71,293.66 475.75,292.9 474.6,292.52 473.62,291.79 472.41,291.52 471.34,290.98 
			470.41,290.16 469.25,289.78 468.27,289.08 467.12,288.67 466.2,287.85 465.08,287.41 463.89,287.09 462.99,286.21 461.73,286.04 
			460.69,285.43 459.76,284.61 458.56,284.32 457.56,283.63 456.42,283.25 455.48,282.46 454.46,281.81 453.2,281.64 452.21,280.95 
			451.09,280.49 450.02,279.94 449,279.31 447.94,278.75 446.95,278.05 445.85,277.58 444.76,277.08 443.79,276.35 442.62,276 
			441.66,275.24 440.45,274.96 439.43,274.3 438.26,273.96 437.3,273.2 436.19,272.73 435.24,271.96 434.08,271.59 433.08,270.89 
			431.92,270.52 430.86,269.96 429.71,269.55 428.75,268.8 427.65,268.3 426.58,267.75 425.5,267.22 424.32,266.88 423.32,266.19 
			422.35,265.46 421.21,265.05 420.1,264.56 419.02,264.04 418.08,263.23 416.92,262.84 415.9,262.18 414.78,261.73 413.7,261.21 
			412.56,260.78 411.57,260.05 410.47,259.54 409.37,259.04 408.17,258.94 406.96,258.75 405.79,258.36 404.67,257.83 
			403.46,257.63 402.27,257.33 401.14,256.87 400.03,256.36 398.82,256.15 397.64,255.83 396.44,255.59 395.35,255 394.24,254.47 
			392.95,254.46 391.83,253.96 390.8,253.21 389.54,253.1 388.34,252.82 387.27,252.18 386.04,251.98 384.92,251.48 383.82,250.93 
			382.73,250.36 381.63,249.8 380.47,249.4 379.25,249.16 378.07,249.15 376.89,249.01 375.71,248.87 374.53,248.57 373.33,248.91 
			372.15,248.86 370.96,248.7 369.78,248.97 368.59,248.95 367.4,249.09 366.2,248.8 365.01,248.89 363.82,248.96 362.62,248.88 
			361.45,249.24 360.26,249.21 359.06,249.13 357.88,249.21 356.7,249.45 355.51,249.51 354.31,249.51 353.12,249.41 351.93,249.57 
			350.74,249.73 349.54,249.51 348.35,249.91 347.16,249.99 345.96,249.96 344.77,249.92 343.57,249.87 342.37,249.99 
			341.18,250.05 339.98,249.87 338.79,249.78 337.61,249.62 336.4,249.81 335.25,249.25 334.05,249.3 332.82,249.44 331.66,249.09 
			330.46,248.99 329.31,248.66 328.24,248.04 327.02,247.94 326.05,247.15 324.94,246.74 323.74,246.44 322.82,245.66 
			322.04,244.72 321.03,244.06 319.98,243.48 319.14,242.6 317.96,242.2 317.27,241.12 316.26,240.47 315.22,239.88 314.22,239.22 
			313.26,238.51 312.13,238.06 311.23,237.24 310.21,236.64 309.23,235.95 308.21,235.33 306.97,235.08 306.03,234.34 
			305.17,233.46 303.91,233.24 303.07,232.33 302.08,231.65 300.87,231.37 299.83,230.8 298.89,230.04 297.96,229.28 296.78,228.93 
			295.88,228.11 294.94,227.37 293.91,226.77 292.72,226.43 291.83,225.59 290.85,224.92 289.83,224.3 288.89,223.55 287.88,222.93 
			286.85,222.34 285.84,221.71 284.84,221.06 283.86,220.38 282.85,219.76 281.86,219.08 280.77,218.56 279.87,217.77 278.95,217 
			277.97,216.32 277.12,215.46 276.17,214.73 275.11,214.15 274.24,213.32 273.16,212.77 272.14,212.12 271.44,211.07 
			270.55,210.25 269.53,209.6 268.42,209.08 267.37,208.48 266.59,207.47 265.49,206.96 264.39,206.46 263.25,206.03 262.3,205.26 
			261.12,204.94 260.17,204.13 259.07,203.63 257.96,203.17 256.77,202.88 255.76,202.15 254.63,201.73 253.48,201.35 252.3,201.08 
			251.14,200.72 250.04,200.21 248.91,199.78 247.66,199.74 246.49,199.45 245.39,198.89 244.21,198.62 243.03,198.32 
			241.85,198.06 240.62,197.97 239.48,197.56 238.27,197.4 237.16,196.83 235.91,196.89 234.78,196.39 233.6,196.1 232.36,196.16 
			231.18,195.94 230.06,195.36 228.82,195.47 227.6,195.45 226.47,194.89 225.28,194.72 224.1,194.48 222.86,194.72 221.69,194.4 
			220.55,194.05 219.35,193.97 218.26,193.42 217.04,193.38 215.85,193.2 214.77,192.58 213.52,192.71 212.39,192.28 211.21,192.13 
			210.05,191.81 208.87,191.64 207.66,191.62 206.5,191.3 205.34,190.98 204.11,191.15 202.95,190.79 201.77,190.59 200.55,190.76 
			199.36,190.69 198.18,190.44 196.97,190.52 195.8,190.2 194.61,189.93 193.39,190.16 192.2,189.99 191.01,190.11 189.81,190.13 
			188.63,189.68 187.44,189.82 186.25,189.8 185.06,189.77 183.87,189.99 182.68,190.02 181.49,189.79 180.3,189.78 179.11,190.16 
			177.92,189.85 176.73,190.02 175.53,190.03 174.35,190.18 173.16,190.18 171.96,190.15 170.77,189.91 169.58,190.37 
			168.39,190.36 167.19,189.96 166,190.17 164.8,190.29 163.6,190.21 162.42,189.84 161.21,190.16 160.02,189.88 158.81,190.09 
			157.62,190.02 156.46,189.48 155.25,189.59 154.06,189.45 152.88,189.26 151.68,189.16 150.46,189.25 149.31,188.86 
			148.15,188.55 146.96,188.4 145.72,188.51 144.61,187.94 143.37,188.02 142.23,187.61 141.09,187.2 139.85,187.3 138.72,186.87 
			137.55,186.59 136.37,186.38 135.24,185.97 134.07,185.69 132.93,185.32 131.69,185.38 130.51,185.18 129.34,184.92 
			128.23,184.39 127.08,184.07 125.83,184.13 124.77,183.42 123.51,183.55 122.46,182.8 121.24,182.73 120.09,182.41 118.95,182.06 
			117.82,181.63 116.62,181.51 115.52,181.01 114.34,180.79 113.23,180.32 112.04,180.12 110.88,179.82 109.72,179.5 108.64,178.98 
			107.58,178.38 106.46,177.97 105.34,177.53 104.19,177.19 103.09,176.72 101.92,176.4 100.77,176.04 99.84,175.21 98.73,174.76 
			97.72,174.13 96.56,173.76 95.51,173.18 94.5,172.54 93.66,171.65 92.62,171.06 91.78,170.21 90.62,169.73 89.93,168.74 
			88.93,168.03 88.15,167.1 87.94,165.84 86.96,165 86.64,163.82 86.16,162.72 85.57,161.67 85.1,160.57 84.66,159.46 84.15,158.37 
			84.13,157.16 83.59,156.01 84.26,154.94 84.72,153.84 85.92,153.59 87.01,153.06 88.21,153.16 89.39,153.06 90.58,153.06 
			91.78,152.94 92.97,153.07 94.15,153.19 95.31,153.56 96.49,153.66 97.72,153.49 98.85,154.05 100.06,153.96 101.21,154.3 
			102.43,154.18 103.59,154.51 104.76,154.76 105.94,154.93 107.13,155.04 108.33,155.02 109.47,155.52 110.67,155.54 
			111.87,155.51 113.04,155.81 114.26,155.7 115.44,155.91 116.62,156.06 117.81,156.16 118.96,156.66 120.18,156.52 121.33,156.86 
			122.55,156.67 123.72,156.95 124.92,156.98 126.09,157.33 127.28,157.4 128.49,157.32 129.66,157.62 130.87,157.57 132.07,157.58 
			133.23,158.04 134.44,157.94 135.63,158.17 136.84,158.16 138.05,158.13 139.23,158.4 140.42,158.66 141.65,158.38 142.86,158.48 
			144.04,158.71 145.25,158.65 146.42,159.06 147.61,159.21 148.82,159.13 150.01,159.39 151.22,159.35 152.43,159.32 
			153.64,159.16 154.83,159.54 156.04,159.44 157.25,159.29 158.45,159.48 159.65,159.79 160.85,159.6 162.06,159.68 163.27,159.37 
			164.48,159.71 165.67,159.42 166.88,159.53 168.09,159.6 169.29,159.48 170.51,159.52 171.7,159.23 172.89,159.02 174.11,159.16 
			175.31,158.98 176.51,158.84 177.68,158.43 178.86,158.21 180.06,158.08 181.27,157.97 182.46,157.76 183.61,157.37 
			184.84,157.31 186.06,157.18 185.66,156.16 184.65,155.49 183.49,155.16 182.32,154.89 181.26,154.31 180.05,154.2 178.93,153.77 
			177.81,153.36 176.71,152.86 175.57,152.5 174.45,152.09 173.23,152.03 172.02,151.95 170.91,151.47 169.76,151.12 168.59,150.88 
			167.5,150.29 166.28,150.25 165.06,150.17 163.99,149.48 162.73,149.62 161.66,148.91 160.41,148.99 159.24,148.73 158.09,148.41 
			156.94,148.06 155.8,147.65 154.61,147.45 153.47,147.07 152.24,147.08 151.14,146.52 149.96,146.29 148.79,146 147.57,145.99 
			146.45,145.47 145.24,145.39 144.07,145.14 142.85,145.08 141.74,144.55 140.56,144.32 139.43,143.89 138.18,143.96 
			137.08,143.43 135.94,143.06 134.75,142.87 133.62,142.48 132.41,142.38 131.23,142.15 130.07,141.86 128.92,141.52 
			127.78,141.15 126.59,140.96 125.49,140.43 124.32,140.16 123.19,139.76 121.92,139.88 120.81,139.38 119.63,139.16 
			118.49,138.76 117.3,138.57 116.14,138.25 114.98,137.93 113.84,137.55 112.73,137.06 111.5,136.97 110.34,136.67 109.26,136.07 
			108.08,135.83 106.87,135.7 105.83,134.98 104.7,134.57 103.43,134.61 102.29,134.22 101.17,133.77 100.04,133.37 98.87,133.07 
			97.71,132.77 96.67,132.07 95.51,131.76 94.27,131.65 93.15,131.22 92.14,130.46 90.93,130.27 89.86,129.69 88.67,129.42 
			87.49,129.16 86.37,128.7 85.33,128.06 84.18,127.7 83.07,127.21 81.83,127.1 80.74,126.55 79.72,125.88 78.63,125.35 
			77.48,124.98 76.26,124.77 75.23,124.11 74.14,123.62 72.92,123.39 71.81,122.92 70.85,122.11 69.65,121.84 68.65,121.14 
			67.51,120.73 66.34,120.38 65.34,119.68 64.37,118.94 63.21,118.55 62.23,117.83 61.14,117.32 60.02,116.85 59.03,116.16 
			57.89,115.72 56.93,114.99 55.73,114.65 54.74,113.96 53.69,113.37 52.63,112.8 51.74,111.96 50.64,111.44 49.64,110.76 
			48.65,110.07 47.77,109.25 46.87,108.44 45.92,107.71 44.75,107.27 44.03,106.24 43.03,105.55 42.13,104.74 41.15,104.02 
			40.18,103.28 39.1,102.66 38.19,101.86 37.54,100.77 36.67,99.93 35.86,99.03 34.68,98.5 33.86,97.6 33.15,96.59 32.44,95.59 
			31.38,94.92 30.74,93.87 29.77,93.11 29.27,91.94 28.34,91.13 27.61,90.17 27,89.11 26.06,88.32 25.41,87.29 24.61,86.35 
			23.87,85.36 23.18,84.34 22.33,83.43 21.66,82.39 21.03,81.32 20.6,80.14 20.03,79.05 19.15,78.14 18.62,77.03 17.94,75.79 
			19.37,75.89 20.56,76.12 21.71,76.62 22.95,76.53 24.14,76.78 25.32,77.04 26.55,77.04 27.71,77.47 28.92,77.56 30.1,77.88 
			31.32,77.95 32.47,78.39 33.68,78.51 34.9,78.61 36.04,79.06 37.23,79.31 38.42,79.58 39.58,79.94 40.71,80.44 41.88,80.76 
			43.06,81.05 44.3,81.14 45.41,81.65 46.67,81.73 47.77,82.29 48.86,82.81 50.08,82.92 51.19,83.37 52.27,83.92 53.4,84.33 
			54.66,84.38 55.64,85.19 56.78,85.54 57.89,86.01 59.06,86.32 60.28,86.5 61.39,86.96 62.5,87.42 63.61,87.9 64.66,88.54 
			65.79,88.99 66.89,89.54 67.95,90.17 69.11,90.57 70.31,90.87 71.52,91.1 72.55,91.83 73.79,91.99 74.79,92.81 76.1,92.77 
			77.17,93.41 78.29,93.92 79.53,94.04 80.63,94.64 81.87,94.75 82.99,95.28 84.25,95.29 85.46,95.45 86.6,95.95 87.77,96.28 
			88.92,96.71 90.16,96.73 91.4,96.77 92.5,97.39 93.66,97.77 94.87,97.93 96.03,98.31 97.24,98.49 98.46,98.61 99.61,99.04 
			100.73,99.47 101.98,99.45 103.1,99.89 104.22,100.31 105.27,100.94 106.49,101.09 107.52,101.73 108.7,102.01 109.83,102.4 
			110.85,103.07 112.02,103.34 113.12,103.81 114.28,104.1 115.38,104.58 116.61,104.56 117.76,104.82 118.9,105.28 120.13,105.03 
			121.28,105.45 122.48,105.39 123.66,105.63 124.86,105.64 126.05,105.71 127.32,105.63 127.89,106.81 128.87,107.61 
			127.92,106.79 127.06,105.89 126.34,105 125.53,104.13 124.59,103.41 123.42,103.02 122.53,102.23 121.55,101.56 120.58,100.87 
			119.51,100.34 118.62,99.54 117.46,99.15 116.61,98.29 115.65,97.59 114.56,97.06 113.6,96.37 112.86,95.38 111.7,94.95 
			110.98,93.95 110.06,93.2 108.97,92.66 108.08,91.88 107.36,90.89 106.31,90.31 105.49,89.45 104.65,88.61 103.86,87.71 
			102.82,87.08 102.06,86.17 101.24,85.31 100.4,84.47 99.43,83.76 98.68,82.83 97.93,81.91 97.17,80.98 96.21,80.23 95.25,79.47 
			94.63,78.4 93.66,77.65 93.02,76.61 92.02,75.89 91.37,74.84 90.66,73.86 89.71,73.08 88.99,72.1 88.06,71.31 87.51,70.18 
			86.5,69.46 85.91,68.37 85.11,67.46 84.08,66.75 83.49,65.67 82.45,64.95 82.02,63.74 81.18,62.87 80.32,62.01 79.38,61.21 
			78.93,60.02 78.08,59.15 77.24,58.27 76.57,57.26 75.75,56.36 75.29,55.2 74.42,54.34 73.66,53.4 72.93,52.43 72.42,51.32 
			71.65,50.37 70.82,49.47 70.38,48.31 69.84,47.23 69.05,46.3 68.52,45.21 68.01,44.11 67.31,43.12 66.66,42.09 66.31,40.92 
			65.77,39.85 65.25,38.75 64.8,37.67 64.75,36.43 64.03,35.45 63.77,34.29 63.25,33.23 62.83,32.13 62.25,31.09 62.19,29.87 
			61.82,28.76 61.5,27.64 61.21,26.5 60.64,25.41 60.53,24.23 60.52,23.03 60.95,21.9 61.04,20.69 61.71,19.69 62.45,18.78 
			63.35,18.02 64.02,17.05 64.9,16.14 66.12,15.87 67.32,15.59 68.58,15.62 69.71,16.16 70.8,16.72 71.98,17.11 72.96,17.85 
			74.01,18.47 74.85,19.42 75.91,20.03 76.84,20.82 78.05,21.23 78.95,22.07 79.9,22.85 81.09,23.26 81.97,24.14 83.14,24.58 
			84.17,25.25 85.02,26.21 86.08,26.78 87.31,27.1 88.15,28.02 89.28,28.51 90.19,29.3 91.19,29.99 92.24,30.59 93.08,31.48 
			93.92,32.36 94.99,32.94 96.03,33.58 96.87,34.47 97.97,35.02 98.64,36.11 99.83,36.56 100.52,37.62 101.71,38.07 102.47,39.04 
			103.45,39.75 104.48,40.4 105.13,41.51 106.08,42.27 107.01,43.04 107.99,43.76 108.98,44.46 109.93,45.22 110.9,45.94 
			111.82,46.72 112.84,47.38 113.81,48.1 114.64,49.01 115.72,49.59 116.79,50.17 117.8,50.82 118.71,51.6 119.58,52.44 
			120.53,53.17 121.61,53.71 122.48,54.55 123.52,55.16 124.51,55.84 125.62,56.34 126.43,57.27 127.53,57.78 128.38,58.66 
			129.49,59.16 130.3,60.09 131.28,60.78 132.18,61.57 133.27,62.12 134.29,62.75 135.31,63.38 136.23,64.15 137.1,64.99 
			138.09,65.67 139.04,66.39 140.12,66.94 141.15,67.57 141.98,68.47 143.1,68.96 143.91,69.89 144.95,70.5 145.96,71.14 
			146.89,71.91 147.75,72.76 148.79,73.37 149.77,74.07 150.86,74.6 151.61,75.61 152.72,76.12 153.68,76.83 154.71,77.46 
			155.73,78.1 156.54,79.01 157.75,79.39 158.69,80.14 159.64,80.87 160.54,81.68 161.49,82.41 162.4,83.19 163.63,83.54 
			164.39,84.54 165.36,85.24 166.44,85.8 167.5,86.37 168.51,87.03 169.36,87.9 170.32,88.62 171.24,89.4 172.24,90.07 
			173.36,90.55 174.21,91.44 175.42,91.79 176.33,92.59 177.38,93.18 178.34,93.91 179.21,94.76 180.26,95.35 181.34,95.89 
			182.26,96.69 183.21,97.43 184.38,97.83 185.37,98.5 186.37,99.17 187.23,100.04 188.4,100.46 189.21,101.41 190.45,101.71 
			191.25,102.68 192.21,103.41 193.29,103.95 194.44,104.38 195.35,105.18 196.24,106.03 197.37,106.5 198.3,107.27 199.5,107.62 
			200.51,108.26 201.49,108.96 202.37,109.82 203.4,110.45 204.48,110.98 205.42,111.75 206.61,112.1 207.68,112.66 208.68,113.33 
			209.57,114.18 210.68,114.66 211.7,115.3 212.7,115.96 213.8,116.48 214.65,117.38 215.74,117.9 216.78,118.51 217.76,119.21 
			218.84,119.76 219.86,120.38 220.91,120.97 222.06,121.39 222.89,122.35 224.11,122.65 225.07,123.38 226.11,123.98 
			227.21,124.49 228.29,125.01 229.24,125.76 230.24,126.43 231.29,127.01 232.29,127.68 233.35,128.23 234.36,128.9 235.42,129.46 
			236.54,129.91 237.7,130.28 238.56,131.21 239.57,131.87 240.82,132.08 241.67,133.02 242.76,133.53 243.85,134.04 244.92,134.6 
			246.02,135.07 247.03,135.74 248.1,136.29 249.23,136.71 250.22,137.41 251.27,138 252.32,138.57 253.37,139.16 254.4,139.77 
			255.47,140.33 256.66,140.64 257.68,141.29 258.78,141.78 259.84,142.35 260.81,143.07 261.86,143.66 262.89,144.29 
			264.15,144.47 265.22,145.01 266.23,145.68 267.26,146.31 268.25,147.01 269.53,147.14 270.41,148.07 271.52,148.54 
			272.73,148.81 273.71,149.54 274.9,149.85 275.91,150.51 276.94,151.16 278.02,151.67 279.19,152.03 280.22,152.65 281.36,153.06 
			282.32,153.84 283.49,154.18 284.48,154.91 285.63,155.28 286.64,155.97 287.74,156.46 288.83,156.98 289.95,157.41 
			291.16,157.68 292.1,158.51 293.36,158.66 294.32,159.44 295.49,159.77 296.5,160.46 297.64,160.88 298.82,161.18 299.95,161.62 
			301.01,162.19 302.01,162.91 303.08,163.46 304.21,163.89 305.37,164.24 306.39,164.9 307.62,165.08 308.6,165.85 309.73,166.25 
			310.75,166.93 311.88,167.34 313.1,167.56 314.18,168.08 315.33,168.46 316.31,169.24 317.39,169.77 318.51,170.22 319.69,170.51 
			320.83,170.91 321.97,171.3 322.96,172.05 324.1,172.46 325.3,172.7 326.32,173.38 327.53,173.62 328.66,174.03 329.75,174.54 
			330.88,174.98 331.87,175.74 333.12,175.85 334.25,176.29 335.33,176.83 336.45,177.28 337.46,178 338.67,178.24 339.74,178.79 
			340.89,179.18 342.03,179.58 343.09,180.16 344.33,180.31 345.32,181.08 346.57,181.19 347.64,181.77 348.8,182.1 349.93,182.52 
			351.04,183.02 352.19,183.37 353.28,183.89 354.46,184.19 355.57,184.67 356.71,185.06 357.77,185.67 358.97,185.93 
			360.09,186.38 361.2,186.86 362.31,187.35 363.43,187.79 364.65,187.96 365.68,188.67 366.82,189.07 367.92,189.6 369.11,189.86 
			370.32,190.07 371.34,190.82 372.55,191.03 373.63,191.6 374.89,191.67 375.98,192.23 377.15,192.54 378.24,193.11 379.43,193.38 
			380.51,193.99 381.75,194.09 382.87,194.5 384.01,194.9 385.03,195.6 386.24,195.79 387.39,196.14 388.54,196.46 389.58,197.15 
			390.79,197.3 391.86,197.88 393,198.24 394.09,198.77 395.35,198.8 396.48,199.19 397.56,199.76 398.63,200.31 399.88,200.37 
			400.9,201.09 402.08,201.37 403.31,201.46 404.39,202.01 405.49,202.51 406.57,203.04 407.82,203.09 408.91,203.64 410.08,203.94 
			411.26,204.18 412.34,204.75 413.4,205.37 414.59,205.62 415.79,205.81 416.81,206.55 418.01,206.76 419.16,207.13 420.31,207.47 
			421.48,207.76 422.65,208.06 423.81,208.4 424.81,209.2 426.06,209.25 427.11,209.88 428.25,210.29 429.47,210.42 430.63,210.73 
			431.74,211.2 432.84,211.72 434.05,211.9 435.19,212.26 436.34,212.61 437.41,213.2 438.58,213.49 439.72,213.87 440.76,214.55 
			442,214.64 443.05,215.29 444.22,215.59 445.46,215.66 446.59,216.09 447.62,216.78 448.8,217.04 450.01,217.21 451.13,217.66 
			452.18,218.31 453.44,218.32 454.58,218.68 455.65,219.29 456.86,219.47 457.98,219.9 459.08,220.39 460.21,220.8 461.4,221.03 
			462.5,221.53 463.69,221.74 464.87,222.01 465.89,222.75 467.12,222.86 468.27,223.2 469.3,223.9 470.5,224.1 471.62,224.52 
			472.73,225 473.93,225.21 475.12,225.41 476.29,225.69 477.36,226.28 478.56,226.46 479.63,227.07 480.84,227.21 481.95,227.7 
			483.17,227.82 484.19,228.55 485.34,228.9 486.59,228.92 487.74,229.26 488.75,230.06 490.03,229.98 491.11,230.55 492.22,231 
			493.33,231.48 494.52,231.69 495.67,232.05 496.89,232.16 497.92,232.86 499.11,233.07 500.2,233.63 501.42,233.71 502.61,233.94 
			503.65,234.61 504.86,234.77 506,235.13 507.11,235.58 508.27,235.92 509.4,236.3 510.62,236.4 511.79,236.68 512.8,237.46 
			513.97,237.74 515.19,237.85 516.35,238.14 517.42,238.75 518.65,238.79 519.75,239.31 520.86,239.76 522.06,239.92 
			523.14,240.51 524.35,240.63 525.43,241.22 526.64,241.32 527.82,241.55 528.87,242.23 530.05,242.45 531.25,242.6 532.42,242.88 
			533.52,243.37 534.67,243.7 535.83,243.99 536.99,244.27 538.15,244.57 539.32,244.82 540.44,245.24 541.62,245.47 542.74,245.92 
			543.82,246.46 544.99,246.71 546.15,247.02 547.28,247.41 548.49,247.52 549.57,248.07 550.81,248.07 551.98,248.33 553,249.12 
			554.25,249.08 555.32,249.71 556.56,249.66 557.61,250.35 558.84,250.4 560.02,250.6 561.11,251.12 562.28,251.36 563.44,251.64 
			564.57,252.09 565.75,252.31 566.96,252.42 568.1,252.81 569.22,253.24 570.39,253.5 571.53,253.89 572.78,253.83 573.84,254.52 
			575.08,254.51 576.21,254.91 577.4,255.1 578.57,255.33 579.68,255.85 580.81,256.22 582.07,256.12 583.22,256.44 584.38,256.71 
			585.48,257.24 586.66,257.45 587.8,257.79 589.01,257.84 590.19,258.02 591.34,258.36 592.43,258.9 593.62,259.05 594.79,259.26 
			596.02,259.18 597.17,259.52 598.31,259.9 599.47,260.19 600.65,260.37 601.82,260.57 603.03,260.56 604.13,261.17 605.32,261.28 
			606.47,261.6 607.67,261.65 608.87,261.65 610.03,262 611.23,261.97 612.41,262.12 613.55,262.59 614.77,262.46 615.9,263 
			617.09,263.08 618.28,263.13 619.48,263.03 620.66,263.17 621.84,262.95 623.08,263.02 622.76,264.23 623.12,265.45 622.8,266.64 
			622.73,267.84 622.78,269.05 622.53,270.24 622.61,271.45 622.73,272.65 622.55,273.85 622.75,275.06 622.75,276.26 622.7,277.46 
			622.68,278.66 622.46,279.86 622.51,281.07 622.39,282.27 622.37,283.48 622.11,284.67 622.47,285.89 622.34,287.09 
			622.41,288.29 622.28,289.49 622.24,290.69 621.98,291.89 621.84,293.09 621.73,294.29 621.72,295.49 621.87,296.7 621.94,297.91 
			621.56,299.11 621.83,300.32 621.52,301.52 621.91,302.73 621.43,303.92 621.39,305.12 621.42,306.33 621.39,307.53 
			621.39,308.74 621.34,309.95 621.42,311.15 621.19,312.35 621.08,313.55 621.45,314.77 621.42,315.98 621.42,317.18 
			621.04,318.38 621.06,319.58 621.05,320.79 620.84,321.98 621.22,323.2 621.1,324.4 620.86,325.59 620.62,326.78 620.99,328 
			620.96,329.2 620.61,330.4 620.47,331.6 620.9,332.82 620.88,334.02 620.8,335.23 620.5,336.42 620.68,337.63 620.53,338.83 
			620.36,340.04 620.17,341.24 620.46,342.45 620.35,343.66 620.27,344.86 620.47,346.08 620.18,347.27 620.34,348.49 
			620.07,349.69 620.09,350.9 620.03,352.1 619.92,353.31 619.88,354.51 620.01,355.73 620.08,356.93 620.04,358.14 619.92,359.35 
			619.53,360.55 619.84,361.77 619.63,362.97 619.83,364.19 619.76,365.4 		"/>
	</g>
</g>
</svg>
